<svg height="512" viewBox="0 0 64 64" width="512" xmlns="http://www.w3.org/2000/svg"><g id="flat"><path d="m40 18v39h-16v-39a13.2 13.2 0 0 1 .36-3.02c1.56-6.66 7.64-11.98 7.64-11.98s6.08 5.32 7.64 11.98a13.2 13.2 0 0 1 .36 3.02z" fill="#e5e5d6"/><path d="m40 57h-16v-4h4v-4h8v4h4z" fill="#195c85"/><path d="m52 23v34h-8v-34c0-4 4-7 4-7s4 3 4 7z" fill="#e5e5d6"/><path d="m20 23v34h-8v-34c0-4 4-7 4-7s4 3 4 7z" fill="#e5e5d6"/><path d="m36 49h-8v-26c0-4 4-6 4-6s4 2 4 6z" fill="#32b1cc"/><path d="m31 52h2v5h-2z" fill="#f4f4e6"/><path d="m32 61h-5l1-4h4z" fill="#f9bb4b"/><path d="m37 61h-5v-4h4z" fill="#ffd782"/><path d="m31 31h2v11h-2z" fill="#f4f4e6"/><path d="m27 30h10v2h-10z" fill="#87cee9"/><path d="m31 44h2v2h-2z" fill="#f4f4e6"/><path d="m28 53h-20v-2c0-2 1-3 3-4 0 0 12-4 17-9z" fill="#bcbb9f"/><path d="m31 22h2v2h-2z" fill="#f4f4e6"/><path d="m39.64 14.98a26.013 26.013 0 0 0 -7.64-1.22 26.013 26.013 0 0 0 -7.64 1.22c1.56-6.66 7.64-11.98 7.64-11.98s6.08 5.32 7.64 11.98z" fill="#dd3e46"/><path d="m24 25h4v8h-4z" fill="#195c85"/><path d="m36 25h4v8h-4z" fill="#195c85"/><path d="m20 23v.45a12.039 12.039 0 0 0 -8 .03v-.48c0-4 4-7 4-7s4 3 4 7z" fill="#dd3e46"/><path d="m12 30h8v6h-8z" fill="#195c85"/><path d="m12 36h8v4h-8z" fill="#32b1cc"/><path d="m22 61h-12a6.194 6.194 0 0 0 2-4h8a6.194 6.194 0 0 0 2 4z" fill="#f9bb4b"/><path d="m36 53h20v-2c0-2-1-3-3-4 0 0-12-4-17-9z" fill="#bcbb9f"/><path d="m52 23v.47a12.039 12.039 0 0 0 -8-.03v-.44c0-4 4-7 4-7s4 3 4 7z" fill="#dd3e46"/><path d="m44 30h8v6h-8z" fill="#195c85" transform="matrix(-1 0 0 -1 96 66)"/><path d="m44 36h8v4h-8z" fill="#32b1cc" transform="matrix(-1 0 0 -1 96 76)"/><path d="m42 61h12a6.194 6.194 0 0 1 -2-4h-8a6.194 6.194 0 0 1 -2 4z" fill="#f9bb4b"/><path d="m31 26h2v2h-2z" fill="#f4f4e6"/></g></svg>