<svg height="512" viewBox="0 0 64 64" width="512" xmlns="http://www.w3.org/2000/svg"><g id="flat"><path d="m33 20 4 7 7 1-6 5 2 8-7-4-7 4 2-8-6-5 7-1z" fill="#e97424"/><path d="m47 10 2 4 4 1-3 3 1 4-4-2.05-4 2.05 1-4-3-3 4-1z" fill="#f9bb4b"/><path d="m14 39 2 4 4 1-3 3 1 4-4-2.05-4 2.05 1-4-3-3 4-1z" fill="#f9bb4b"/><path d="m19 3 2 4 4 1-3 3 1 4-4-2.05-4 2.05 1-4-3-3 4-1z" fill="#f9bb4b"/><path d="m44 49 2 4 4 1-3 3 1 4-4-2.05-4 2.05 1-4-3-3 4-1z" fill="#f9bb4b"/><circle cx="16" cy="31" fill="#fcf05a" r="3"/><circle cx="57" cy="29" fill="#fcf05a" r="2"/><path d="m20 38h2v2h-2z" fill="#d9176c"/><path d="m52 33h2v2h-2z" fill="#d9176c"/><g fill="#8ec13f"><path d="m8 21h2v2h-2z"/><path d="m8 25h2v2h-2z"/><path d="m6 23h2v2h-2z"/><path d="m10 23h2v2h-2z"/><path d="m25 45h2v2h-2z"/><path d="m25 49h2v2h-2z"/><path d="m23 47h2v2h-2z"/><path d="m27 47h2v2h-2z"/><path d="m57 36h2v2h-2z"/><path d="m57 40h2v2h-2z"/><path d="m55 38h2v2h-2z"/><path d="m59 38h2v2h-2z"/></g><path d="m23 16.757h2v8.485h-2z" fill="#4da6ea" transform="matrix(.707 -.707 .707 .707 -7.82 23.121)"/><path d="m17.5 17.964h2v7.071h-2z" fill="#4da6ea" transform="matrix(.707 -.707 .707 .707 -9.784 19.379)"/><path d="m46 32.343h2v11.314h-2z" fill="#4da6ea" transform="matrix(.707 -.707 .707 .707 -13.104 44.364)"/><path d="m47 39.343h2v11.314h-2z" fill="#4da6ea" transform="matrix(.707 -.707 .707 .707 -17.761 47.121)"/><path d="m32 4.343h2v11.314h-2z" fill="#4da6ea" transform="matrix(.707 -.707 .707 .707 2.594 26.263)"/><path d="m28.5 12.379h2v4.243h-2z" fill="#4da6ea" transform="matrix(.707 -.707 .707 .707 -1.613 25.107)"/><path d="m33 41.757h2v8.485h-2z" fill="#4da6ea" transform="matrix(.707 -.707 .707 .707 -22.569 37.515)"/><path d="m48 24.172h2v5.657h-2z" fill="#4da6ea" transform="matrix(.707 -.707 .707 .707 -4.74 42.556)"/><path d="m6 1.757h2v8.485h-2z" fill="#4da6ea" transform="matrix(.707 -.707 .707 .707 -2.192 6.707)"/><path d="m11 2.586h2v2.828h-2z" fill="#4da6ea" transform="matrix(.707 -.707 .707 .707 .686 9.657)"/><path d="m7.5 8.55h2v9.899h-2z" fill="#4da6ea" transform="matrix(.707 -.707 .707 .707 -7.056 9.964)"/></g></svg>